<?xml version="1.0" encoding="UTF-8" standalone="no" ?>
<!DOCTYPE svg PUBLIC "-//W3C//DTD SVG 1.1//EN" "http://www.w3.org/Graphics/SVG/1.1/DTD/svg11.dtd">
<svg xmlns="http://www.w3.org/2000/svg" xmlns:xlink="http://www.w3.org/1999/xlink" version="1.1" width="1080" height="1080" viewBox="0 0 1080 1080" xml:space="preserve">
<desc>Created with Fabric.js 5.2.4</desc>
<defs>
</defs>
<g transform="matrix(1 0 0 1 540 540)" id="9aa752d5-3a7f-40d8-a8c1-eb1b791329f1"  >
<rect style="stroke: none; stroke-width: 1; stroke-dasharray: none; stroke-linecap: butt; stroke-dashoffset: 0; stroke-linejoin: miter; stroke-miterlimit: 4; fill: rgb(255,255,255); fill-rule: nonzero; opacity: 1; visibility: hidden;" vector-effect="non-scaling-stroke"  x="-540" y="-540" rx="0" ry="0" width="1080" height="1080" />
</g>
<g transform="matrix(1 0 0 1 540 540)" id="9944de46-4b46-4750-a71e-d5febb0244c0"  >
</g>
<g transform="matrix(1 0 0 1 623.4 540)"  >
<path style="stroke: none; stroke-width: 1; stroke-dasharray: none; stroke-linecap: butt; stroke-dashoffset: 0; stroke-linejoin: miter; stroke-miterlimit: 4; fill: rgb(255,195,11); fill-rule: nonzero; opacity: 1;" vector-effect="non-scaling-stroke"  transform=" translate(-343.03, -102.29)" d="M 239.81 136.9 C 238.43 137.96 237.39000000000001 138.76000000000002 236.35 139.57 C 232.27714405712916 142.85158738244652 226.9654167220106 144.1722027873899 221.82999999999998 143.18 C 217.6 142.47 214.92 139.70000000000002 213.17999999999998 135.98000000000002 C 211.07453098336023 131.4472703064494 209.98901941321864 126.50785130646557 210 121.51000000000002 C 210 118.68 209.93 115.85000000000001 210 113.02000000000001 C 210.30532420418308 107.21906386497382 211.04742600264214 101.4493895219991 212.21999999999997 95.76000000000002 C 213.37549112596307 89.38765227237185 215.1747093880973 83.14902209715044 217.59 77.14000000000004 C 219.12569436658512 73.08116276608223 221.28865831097494 69.28838355626299 224 65.9 C 225.88867948722083 63.433454720136815 228.64523284029104 61.778092589823586 231.71 61.27 C 235.81 60.650000000000006 239.09 62.27 240.71 66.16 C 241.71604518525473 68.6243751389424 242.27152157102608 71.24933976682527 242.35 73.91 C 242.52083404052465 79.48545365147406 241.76730997255453 85.05071885302905 240.12 90.38 C 237.35597312332837 99.628812685933 233.34224752065566 108.45699037362222 228.19 116.62 C 226.19 119.86999999999999 224 123.00999999999999 221.84 126.16999999999999 C 221.30752481506823 126.91750268351633 221.13867447550177 127.86453284891087 221.38 128.75 C 222.26999999999998 132.88 225.26999999999998 134.75 229.38 133.6 C 232.00593557614906 132.78132504320183 234.3168909178063 131.1755252589687 236 129 C 236.34206905731824 128.3553584669563 236.49788792655045 127.62820374387272 236.45 126.9 C 236.485223852842 124.25044954689868 236.68225741536168 121.60552443646499 237.03999999999996 118.98 C 238.37 112.49000000000001 241.64 107.25 247.78 104.21000000000001 C 251.59644377128976 102.23815144034195 256.0237915021633 101.80508023950469 260.15 103 C 265.03 104.39 267.90999999999997 107.95 269.76 112.43 C 270.2273186344284 113.84398281935296 270.60145394048317 115.28707614270702 270.88 116.75 C 271.03571043087004 117.23548875652688 271.215941905784 117.71276840305832 271.42 118.18 C 271.748867006631 118.10893384101252 272.0836561515256 118.06875914362516 272.42 118.06 C 275.82 118.38 277.32 116.47 278.55 113.56 C 280.35514735523225 109.27782758944812 283.73900434932665 105.85458178378221 288 104 C 291.2208747943871 102.36018138948464 294.9292312582806 101.95130220123175 298.43 102.85 C 301.24625844441897 103.5165595128679 303.5165460807258 105.59387270008862 304.43 108.33999999999999 C 305.7830616415676 111.8102995924922 305.41210901368163 115.71643076413163 303.43 118.86999999999999 C 302.38773256410207 120.65903752732636 300.31575567370373 121.57812455263922 298.29 121.14999999999999 C 296.89266185254127 121.05435647651507 295.8154285551012 119.8803920258355 295.84000000000003 118.47999999999999 C 295.84801536084956 117.5688329192747 295.9249011020516 116.65957545810295 296.07000000000005 115.75999999999999 C 296.15000000000003 115.10999999999999 296.37000000000006 114.46 296.40000000000003 113.75999999999999 C 296.49 111.61999999999999 295.62000000000006 110.75999999999999 293.56000000000006 111.16999999999999 C 292.53011095474454 111.43322763490514 291.5773586972857 111.93702109478447 290.7800000000001 112.63999999999999 C 290.02487325445765 113.29918550446675 289.4123533022425 114.10567010821671 288.9800000000001 115.00999999999999 C 286.71128109612505 119.23250835678168 286.1458910946159 124.1635679901973 287.4000000000001 128.79 C 288.3082392180635 132.0343029304676 291.26097790388405 134.28050801649982 294.6300000000001 134.29 C 299.1600000000001 134.51999999999998 302.85000000000014 132.59 306.1800000000001 129.79999999999998 C 306.6198195221256 129.32927724781166 306.8723406673264 128.71397924612518 306.8900000000001 128.07 C 307.0706363369139 124.07161319881043 308.09290238169433 120.15633424730132 309.8900000000001 116.58 C 313.4500000000001 109.63 318.4800000000001 104.36 326.4400000000001 102.65 C 327.74672285391114 102.43541626974415 329.06633420506455 102.30846631697496 330.3900000000001 102.27000000000001 C 331.8900000000001 102.15 332.9900000000001 102.65 333.3900000000001 104.27000000000001 C 333.5149874184471 104.63497066899662 333.67577019527283 104.98668299330296 333.8700000000001 105.32000000000001 C 335.35000000000014 105.32000000000001 336.7400000000001 105.32000000000001 338.1200000000001 105.32000000000001 C 340.98000000000013 105.41000000000001 341.9900000000001 106.32000000000001 341.7500000000001 109.10000000000001 C 341.4900000000001 112.10000000000001 340.8900000000001 115.00000000000001 340.4500000000001 117.95 Q 339.5800000000001 123.85000000000001 338.7400000000001 129.76 C 338.66603627927105 130.33764196897238 338.66603627927105 130.9223580310276 338.7400000000001 131.5 C 338.97000000000014 133.39 340.42000000000013 134.35 342.1300000000001 133.5 C 343.4573534533535 132.81424548993934 344.6797435064861 131.9420718707621 345.7600000000001 130.91 C 347.0400000000001 129.73 348.1000000000001 128.32999999999998 349.3000000000001 127.06 C 349.8206685000857 126.40672029140894 350.0453634767555 125.5659261851606 349.92000000000013 124.74000000000001 C 349.8600000000001 121.74000000000001 349.8200000000001 118.74000000000001 349.8100000000001 115.74000000000001 C 349.8100000000001 108.06 351.1100000000001 100.54 352.6100000000001 93.05000000000001 C 353.77028524728763 87.35531173694375 355.47822474802916 81.7860894041335 357.71000000000015 76.42000000000002 C 359.1999659656614 72.53151797517373 361.29588656251235 68.903314043427 363.92000000000013 65.67000000000002 C 365.78372931738744 63.28704305531825 368.4749817709054 61.69156580502311 371.46000000000015 61.20000000000002 C 375.60000000000014 60.570000000000014 378.85000000000014 62.20000000000002 380.52000000000015 66.02000000000001 C 381.5440902084028 68.47612430055912 382.106819387839 71.09993384805061 382.1800000000002 73.76 C 382.3482529851739 79.41515201098088 381.5743514955349 85.05888776511631 379.89000000000016 90.46000000000004 C 377.0968250462342 99.70346872596096 373.0598518143254 108.52425523768176 367.89000000000016 116.68 C 365.89000000000016 119.86000000000001 363.79000000000013 122.93 361.67000000000013 126.02000000000001 C 361.128926391269 126.75554550223981 360.9421168614556 127.69325608326388 361.16000000000014 128.58 C 362.01000000000016 132.72 365.03000000000014 134.58 369.1100000000001 133.51000000000002 C 370.7947711667912 133.0330979918678 372.35011367036884 132.18193253386596 373.66000000000014 131.02 C 374.23000000000013 130.54000000000002 374.71000000000015 129.94 375.29000000000013 129.48000000000002 C 377.0401472958207 128.06587172435 378.0038320490493 125.89665083194727 377.8800000000001 123.65000000000002 C 378.1396388712082 118.0931009023238 379.1212117591755 112.59360348891829 380.8000000000001 107.29000000000003 C 382.1200000000001 102.77000000000002 386.1400000000001 102.13000000000002 389.8000000000001 102.42000000000002 C 391.29000000000013 102.54000000000002 391.90000000000015 103.70000000000002 391.53000000000014 105.42000000000002 C 391.04000000000013 107.77000000000001 390.42000000000013 110.10000000000002 389.88000000000017 112.42000000000002 Q 389.26000000000016 115.09000000000002 388.72000000000014 117.77000000000001 C 388.48640158747526 118.77282889115986 388.43894793112315 119.81003023714204 388.58000000000015 120.83000000000001 C 388.94000000000017 120.20000000000002 389.35000000000014 119.59000000000002 389.65000000000015 118.93 C 391.3120923666142 114.9134293875048 393.62287458497383 111.19725915330068 396.4900000000001 107.93 C 398.8200000000001 105.4 401.4900000000001 103.26 404.96000000000015 102.51 C 405.1200000000002 102.51 405.27000000000015 102.39 405.44000000000017 102.36 C 409.9900000000002 101.45 412.9800000000002 104.14 412.44000000000017 108.74 C 412.0500000000002 111.74 411.44000000000017 114.74 410.9300000000002 117.81 C 410.79326612896875 118.47695008394594 410.8416818720115 119.16860355598547 411.07000000000016 119.81 C 411.90000000000015 118.24000000000001 412.70000000000016 116.66 413.5600000000002 115.11 C 415.1491790703295 112.08629596184252 417.22718111200555 109.34603635891686 419.71000000000015 107 C 422.025394459456 104.7068713853198 424.9401143425452 103.11261318529478 428.1200000000002 102.4 C 429.6832824458706 102.17530459614377 431.2782089122427 102.37208123809877 432.7400000000002 102.97 C 433.68273096379187 103.35281898760648 434.39528877022497 104.15029300931401 434.6700000000002 105.13 C 435.29779033339105 106.86603530444224 435.4327744445895 108.7419683369946 435.0600000000002 110.55 C 434.27000000000015 115.28999999999999 433.2800000000002 120 432.4200000000002 124.72999999999999 C 432.1000000000002 126.52 431.8600000000002 128.32999999999998 431.70000000000016 130.14999999999998 C 431.4158576458328 131.41753279018903 431.96571319175536 132.7259481768369 433.07000000000016 133.40999999999997 C 434.40000000000015 134.11999999999998 435.6700000000002 133.54999999999995 436.7900000000002 132.74999999999997 C 437.6000000000002 132.16999999999996 438.3600000000002 131.50999999999996 439.1200000000002 130.85999999999999 C 440.69804545667375 129.70866338133018 441.5407898624788 127.80200182973505 441.33000000000015 125.85999999999999 C 440.82430933045555 120.59304304405786 442.16785576713744 115.31431980730528 445.13000000000017 110.92999999999999 C 449.08000000000015 105.03999999999998 454.63000000000017 101.86999999999998 461.78000000000014 102.24999999999997 C 467.17000000000013 102.53999999999998 470.20000000000016 105.08999999999997 471.39000000000016 109.24999999999997 C 472.94001963593547 114.11763985566652 471.7519894892012 119.44276533652669 468.28000000000014 123.18999999999997 C 466.35656329447045 125.29680829934074 463.95618225994787 126.91192182399807 461.28000000000014 127.89999999999996 C 459.21000000000015 128.73999999999995 457.04000000000013 129.33999999999997 454.92000000000013 130.05999999999997 C 454.4500000000001 130.21999999999997 454.0000000000001 130.40999999999997 453.3600000000001 130.65999999999997 C 454.3600000000001 133.18999999999997 456.46000000000015 134.11999999999998 458.73000000000013 134.49999999999997 C 461.7375150540894 135.0691555631854 464.8333021658339 134.1318303942495 467.02000000000015 131.98999999999998 C 468.28000000000014 130.79 469.40000000000015 129.43999999999997 470.5500000000001 128.12999999999997 C 471.5500000000001 126.97999999999996 472.5500000000001 125.79999999999997 474.3200000000001 126.24999999999997 C 475.5000000000001 126.54999999999997 476.0900000000001 127.24999999999997 476.0900000000001 130.24999999999997 C 475.8900000000001 134.30999999999997 473.7700000000001 137.24999999999997 470.6700000000001 139.64999999999998 C 468.12307483885155 141.5369188279463 465.12077065028166 142.7136840328915 461.9700000000001 143.05999999999997 C 459.5834920075769 143.32513856027265 457.1723050134519 143.27133243488072 454.80000000000007 142.89999999999998 C 451.71448649991635 142.5685395803527 448.82654860035154 141.22130423865562 446.5900000000001 139.06999999999996 C 445.8800000000001 138.36999999999998 445.2700000000001 137.57999999999996 444.5400000000001 136.73999999999995 C 443.1600000000001 137.81999999999996 442.00000000000006 138.73999999999995 440.82000000000005 139.62999999999994 C 437.1705157312914 142.46564593098893 432.52381371806075 143.69321289641118 427.95000000000005 143.02999999999994 C 424.4193981046087 142.70394459666008 421.6213602191661 139.91010796930377 421.29 136.37999999999994 C 420.72 132.68999999999994 421.36 129.11999999999995 422 125.52999999999994 C 422.38 123.40999999999994 422.84 121.29999999999994 423.21 119.17999999999995 C 423.332728132597 118.4383764788235 423.332728132597 117.68162352117642 423.21 116.93999999999996 C 423.01524840207577 116.41112015918196 422.7348395858469 115.917870916177 422.38 115.47999999999996 C 421.02131608422565 116.26212805042925 419.8773093179655 117.3683448033895 419.05 118.69999999999996 C 415.76 123.38999999999996 413.79 128.69999999999996 412.16 134.09999999999997 C 411.61 135.92999999999998 411.16 137.78999999999996 410.56 139.59999999999997 C 410.00171970175705 141.87002178494473 407.8921837910683 143.4099829997475 405.56 143.24999999999997 C 403.03000000000003 143.29999999999998 401.44 142.24999999999997 400.56 139.58999999999997 C 399.6255521755409 136.92595147497175 399.31424594593676 134.08314403759803 399.65 131.27999999999997 C 400.21999999999997 126.91999999999997 400.48999999999995 122.52999999999997 400.90999999999997 118.14999999999998 C 401.15589261727916 117.29753948928402 400.905066837088 116.3791312479686 400.26 115.76999999999998 C 398.98 115.76999999999998 398.32 116.67999999999998 397.64 117.61999999999998 C 395.4655352782544 120.6742930551225 393.77875561105066 124.04785238952996 392.64 127.61999999999998 C 391.57 130.84999999999997 390.64 134.11999999999998 389.64 137.37999999999997 C 389.41999999999996 138.08999999999997 389.22999999999996 138.81999999999996 388.96 139.51999999999995 C 387.96 142.10999999999996 386.22999999999996 143.39999999999995 383.71 143.29999999999995 C 381.4682041387561 143.26874824779384 379.5108508015085 141.7743374010986 378.89 139.61999999999995 C 378.7 139.09999999999994 378.45 138.61999999999995 378.14 137.89999999999995 L 375.82 139.62999999999994 C 371.72853000863165 142.7393022392329 366.4970433136463 143.9378810154517 361.46 142.91999999999993 C 358.4694834473371 142.33847529738645 355.86269192553823 140.5231608671644 354.28 137.91999999999993 C 353.69 137.03999999999994 353.15 136.12999999999994 352.53 135.14999999999992 C 351.10999999999996 136.48999999999992 349.83 137.79999999999993 348.46 138.98999999999992 C 346.04999999999995 141.08999999999992 343.46 142.83999999999992 340.14 143.16999999999993 C 337.9004170399101 143.54153782772 335.61433891776596 142.86308883663204 333.94 141.32999999999993 C 332.55618810043455 139.8460086352707 331.2510664105458 138.29054391023703 330.03 136.66999999999993 C 329.75 136.99999999999994 329.4 137.40999999999994 329.03 137.81999999999994 C 326.80999999999995 140.51999999999992 324.27 142.66999999999993 320.59 143.06999999999994 C 316.15999999999997 143.55999999999995 312.35999999999996 142.55999999999995 309.65999999999997 138.74999999999994 C 309.52 138.54999999999995 309.39 138.32999999999996 309.24999999999994 138.09999999999994 C 305.90999999999997 140.04999999999993 302.71999999999997 141.84999999999994 299.09999999999997 142.60999999999993 C 294.09999999999997 143.60999999999993 289.2 143.60999999999993 284.53 141.33999999999992 C 279.30999999999995 138.7899999999999 276.67999999999995 134.33999999999992 275.91999999999996 128.74999999999991 C 275.84 128.17999999999992 275.78999999999996 127.59999999999991 275.71 127.02999999999992 C 275.71 126.95999999999992 275.59999999999997 126.90999999999991 275.41999999999996 126.70999999999992 L 270.54999999999995 127.17999999999992 L 269.69999999999993 129.76999999999992 C 268.37679002246443 133.82635338056775 265.88187663302443 137.39996014619513 262.5299999999999 140.03999999999994 C 256.8699999999999 144.61999999999995 246.17999999999992 144.43999999999994 241.1699999999999 138.51999999999992 C 240.73 138.19 240.31 137.57 239.81 136.9 Z M 220.37 114.29 L 220.84 114.44000000000001 C 221.21 113.9 221.62 113.39000000000001 221.95000000000002 112.82000000000001 C 226.12765256299315 105.74481982758235 229.4158553400671 98.18094581944077 231.74 90.30000000000003 C 233.3197483713012 85.40483187007867 234.08328030990015 80.28308665363603 234 75.13999999999999 C 233.9353996328084 73.8205313712998 233.66897387419706 72.51875487985711 233.21 71.28 C 232.53 69.48 231.21 69.28 230.05 70.82000000000001 C 229.2133565717445 71.95116421961228 228.52446073027147 73.18445579922496 228 74.49 C 226.17935574645057 78.9394236541294 224.81893259618033 83.56352204667357 223.94 88.28999999999998 C 222.87 93.88999999999999 221.89 99.52 221.07 105.16 C 220.59 108.17 220.57 111.25 220.37 114.29 Z M 360.17 114.88000000000001 C 360.77000000000004 114.24000000000001 360.96000000000004 114.07000000000001 361.1 113.88000000000001 C 361.34373861477474 113.5586009459166 361.57070785404096 113.22482265287806 361.78000000000003 112.88000000000001 C 365.95610762399906 105.80403179014816 369.2442252727473 98.240353603242 371.57000000000005 90.36 C 373.13391038097615 85.45860026048459 373.8838520121516 80.33399911411946 373.7900000000001 75.19000000000001 C 373.72752069311855 73.87118983016676 373.4645036786281 72.5695928097394 373.0100000000001 71.33 C 372.3300000000001 69.53000000000002 371.0100000000001 69.33000000000001 369.8500000000001 70.84000000000002 C 369.00884348377923 71.96996481889622 368.31649817013675 73.20341496504568 367.7900000000001 74.51000000000002 C 365.96922335911887 78.95937722971844 364.60879616052284 83.58348938258193 363.7300000000001 88.31 C 362.6600000000001 93.91000000000001 361.68000000000006 99.54000000000002 360.86000000000007 105.18000000000002 C 360.43 108.16 360.42 111.23 360.17 114.89 Z M 255.68 111.64000000000001 C 254.8317600603865 111.7371413023302 253.9924950627702 111.9009818795541 253.17000000000002 112.13000000000001 C 250.64000000000001 113.07000000000001 249.26000000000002 115.13000000000001 248.35000000000002 117.51 C 247.26414905712554 120.66342664603033 246.96212373944195 124.03375462290852 247.47000000000003 127.33000000000001 C 247.69819033458583 128.80768565944288 248.23297722672794 130.22129432338545 249.04000000000002 131.48000000000002 C 250.94000000000003 134.59000000000003 254.19000000000003 135.13000000000002 257.16 132.99 C 259.08000000000004 131.61 259.93 129.56 260.66 127.4 C 261.14258656132205 126.40106245353685 260.8539262976736 125.20040309604262 259.97 124.53 C 256.22 121.23 255.3 116.91 255.68 111.64 Z M 331.22 110.64000000000001 C 328.70380536286956 110.61325224263926 326.28371328499907 111.60509325815997 324.51000000000005 113.39000000000001 C 319.77000000000004 117.77000000000001 317.95000000000005 123.39000000000001 317.82000000000005 129.68 C 317.8406043216409 130.2588129395595 317.9312649894806 130.8329971692108 318.09000000000003 131.39000000000001 C 318.37064580428074 132.98206459175853 319.5820237176906 134.24868449470506 321.16 134.60000000000002 C 322.82000000000005 135.04000000000002 323.88000000000005 134.19000000000003 324.86 133.16000000000003 C 326.36837553380457 131.5901013134987 327.4075288786547 129.6295653362147 327.86 127.50000000000003 C 328.77000000000004 123.30000000000003 329.6 119.08000000000003 330.45 114.87000000000003 C 330.69 113.47 330.93 112.12 331.22 110.6 Z M 451.75 123.96000000000001 C 455.61 122.96000000000001 458.75 121.59 461.12 118.84 C 462.2032885224033 117.66867373824803 462.7754486847204 116.1141253727072 462.71 114.52000000000001 C 462.73541924283785 113.59159551573035 462.3587303370486 112.69742978165117 461.67664726618506 112.06707773020705 C 460.9945641953215 111.43672567876291 460.07352342882456 111.13158505839785 459.15 111.23 C 457.88822962360456 111.17143530806347 456.6616886404959 111.65550044383036 455.78 112.56 C 455.081386121468 113.26645245755915 454.4672643540195 114.05172291429648 453.95 114.9 C 452.33674950244864 117.62129619930994 451.57083876856007 120.76153020825316 451.75 123.92 Z" stroke-linecap="round" />
</g>
<g transform="matrix(1 0 0 1 383.47 597.71)"  >
<path style="stroke: none; stroke-width: 1; stroke-dasharray: none; stroke-linecap: butt; stroke-dashoffset: 0; stroke-linejoin: miter; stroke-miterlimit: 4; fill: rgb(255,195,11); fill-rule: nonzero; opacity: 1;" vector-effect="non-scaling-stroke"  transform=" translate(-111.53, -172.82)" d="M 163 173.48 C 162.88762644678079 172.54831684139174 162.60994300546756 171.6441524654084 162.18 170.81 C 161.6664811171725 169.81302451674833 161.02800496931886 168.8855539019714 160.28 168.05 C 159.43257831879768 167.09269847327928 158.49861788717263 166.2156460249432 157.49 165.43 C 156.39542972169806 164.58027558990426 155.2426001907323 163.80838103438805 154.04 163.12 C 152.74541554783954 162.37849820391196 151.40995210816675 161.71076648407558 150.04000000000002 161.12 C 148.66000000000003 160.52 147.18 159.95000000000002 145.64000000000001 159.45000000000002 L 145.64000000000001 159.45000000000002 C 144.81 159.18 143.93 158.91000000000003 143.02 158.66000000000003 C 142.11 158.41000000000003 141.20000000000002 158.17000000000002 140.25 157.95000000000002 L 140.25 157.95000000000002 L 139.41 157.76000000000002 C 138.08413419923104 157.45912178062005 136.70137721537267 157.52480273735333 135.41 157.95000000000002 L 134.41 158.70000000000002 L 134.41 158.70000000000002 C 134.1924136484698 158.98359028780604 134.10224905715623 159.34474916098338 134.16101273220877 159.69733121129858 C 134.2197764072613 160.04991326161374 134.4221998443992 160.3623074633825 134.72 160.56000000000003 C 135.65 161.39000000000004 139.35999999999999 162.24000000000004 140.63 162.72000000000003 C 143.01 163.63000000000002 144.51 164.67000000000002 145.22 165.90000000000003 C 145.6 166.55000000000004 146.6 168.83000000000004 143.72 170.90000000000003 C 141.7511257749061 172.140542590884 139.57725697850603 173.02092559254135 137.3 173.50000000000003 C 133.89228858897758 174.3248946849531 130.43021974724022 174.90636184563098 126.94000000000001 175.24 C 122.71000000000001 175.68000000000004 118.14000000000001 175.92000000000004 113.36000000000001 175.94000000000003 L 112.57000000000001 175.94000000000003 C 108.01 175.94000000000003 103.57000000000001 175.74000000000004 99.44000000000001 175.36 C 95.70647062613142 175.04467735978213 91.99820070364149 174.48008491212377 88.34 173.67000000000002 C 85.84106832986728 173.18484793624356 83.43464506331259 172.30733033553636 81.21000000000002 171.07000000000002 C 78.09000000000002 169.07000000000002 78.69000000000003 166.89000000000001 79.09000000000002 166.07000000000002 C 79.72000000000001 164.73000000000002 81.23000000000002 163.61 83.72000000000001 162.65000000000003 Q 84.89000000000001 162.20000000000005 86.35000000000001 161.80000000000004 C 88.86156469951607 161.11947275092453 91.43392507332896 160.68739659438566 94.02999999999997 160.51000000000005 L 95.75 160.38000000000005 C 96.46143858394994 160.37881552510177 97.13300084278393 160.0512731993866 97.5719401872991 159.49138167993834 C 98.01087953181428 158.93149016049009 98.16866122889601 158.20115819577052 98 157.51 L 98 157.45 C 97.73569467449636 156.32938320139792 96.68651938401588 155.5744887850766 95.54 155.67999999999998 L 94.64 155.76 C 92.79 155.94 91 156.14999999999998 89.32 156.39999999999998 C 88.22999999999999 156.55999999999997 87.16 156.73 86.13 156.90999999999997 C 85.1 157.08999999999995 84.06 157.29999999999995 83.13 157.50999999999996 C 82.19999999999999 157.71999999999997 81.13 157.95999999999995 80.22 158.20999999999995 C 79.31 158.45999999999995 78.35 158.71999999999994 77.46 158.99999999999994 C 75.83999999999999 159.50999999999993 74.27999999999999 160.07999999999996 72.83999999999999 160.69999999999993 C 71.41921965443613 161.3052341527724 70.0366555295563 161.99651621521232 68.69999999999999 162.76999999999992 C 67.45840578124071 163.4863964902992 66.27479099542518 164.2988778263251 65.15999999999998 165.19999999999993 C 64.1048728304649 166.02677743818364 63.14257400121147 166.9656055642846 62.29 168 C 61.569045000023664 168.87844665371148 60.982639847545954 169.85915871906212 60.55 170.91 C 60.18433177348384 171.8079501273641 60.00405109140751 172.77058093920564 60.019999999999996 173.74 C 60.050463095403025 174.72579506128443 60.29981784483576 175.69247169264693 60.74999999999999 176.57000000000002 C 61.33474499015922 177.705303437645 62.124739431008656 178.72246366191465 63.07999999999999 179.57000000000002 C 63.75636410454048 180.17488922708782 64.47851957848235 180.7265357696823 65.23999999999998 181.22000000000003 C 66.15610387753048 181.81756642014656 67.10787873222199 182.35857528491857 68.08999999999999 182.84000000000003 C 69.16999999999999 183.37000000000003 70.35999999999999 183.84000000000003 71.63 184.37000000000003 C 72.9 184.90000000000003 74.36 185.37000000000003 75.86 185.77000000000004 C 78.28 186.47000000000003 80.97 187.10000000000005 83.86 187.63000000000005 C 86.75 188.16000000000005 89.98 188.63000000000005 93.28999999999999 189.00000000000006 C 96.59999999999998 189.37000000000006 100.13999999999999 189.63000000000005 103.71 189.79000000000005 C 107.28 189.95000000000005 110.97999999999999 190.00000000000006 114.61999999999999 189.94000000000005 C 118.25999999999999 189.88000000000005 121.83999999999999 189.71000000000006 125.32 189.43000000000006 C 128.8 189.15000000000006 132.03 188.79000000000008 135.16 188.33000000000007 C 138.29 187.87000000000006 141.09 187.33000000000007 143.74 186.74000000000007 C 146.10693888115222 186.19712148882505 148.4435311704764 185.52952369187528 150.74 184.74000000000007 C 152.02 184.30000000000007 153.22 183.82000000000008 154.32000000000002 183.33000000000007 C 155.31636146058077 182.88659519403544 156.28780354015902 182.38919014297988 157.23000000000002 181.84000000000006 C 158.01441692660543 181.38254670526004 158.76621511174133 180.87132393936764 159.48000000000002 180.31000000000006 C 160.06409096790577 179.84880402919057 160.60620698529837 179.33680556831976 161.10000000000002 178.78000000000006 C 161.8070834395069 178.00637309537305 162.3512220431246 177.098341800586 162.70000000000002 176.11000000000007 C 162.99290911300545 175.2662256703827 163.09536104860078 174.3680637016637 163 173.48 Z" stroke-linecap="round" />
</g>
<g transform="matrix(1 0 0 1 420.04 527.93)"  >
<path style="stroke: none; stroke-width: 1; stroke-dasharray: none; stroke-linecap: butt; stroke-dashoffset: 0; stroke-linejoin: miter; stroke-miterlimit: 4; fill: rgb(255,195,11); fill-rule: nonzero; opacity: 1;" vector-effect="non-scaling-stroke"  transform=" translate(-148.1, -103.05)" d="M 193.43 61.91 C 193.14187099922358 57.147856927423376 191.49713864422375 52.567589609702324 188.69 48.70999999999998 C 183.9 42.16 174.60999999999999 39.419999999999995 162.76999999999998 40.489999999999995 C 155.03172502656952 41.03633177707573 147.5853713588603 43.66587940636886 141.21999999999997 48.099999999999994 C 134.2344630737488 53.075774501398534 128.21867109531442 59.28813883743808 123.46999999999993 66.43000000000005 C 117.3007286124133 75.1502666833737 112.38611010318178 84.69337865164177 108.86999999999998 94.78 C 97.61999999999998 128.4 104.35999999999997 153.6 107.95999999999998 163.25 C 108.36769366784554 164.35598020961382 109.24914663782666 165.22133200882593 110.36245412343496 165.60856939512445 C 111.47576160904325 165.995806781423 112.70396581334556 165.86424878196163 113.70999999999998 165.25 C 126.16806128025131 157.52498687934386 137.88466442264283 148.66388730279806 148.70999999999998 138.78000000000003 Q 150.70999999999998 136.95 152.64 135.09 C 167.20999999999998 121.09 179.08999999999997 106.29 186.86999999999998 90.4 C 191.44 81.08 194.17 71.64 193.43 61.91 Z M 154.43 105.72 C 146 119.27 134.52 129.28 130 132.94 C 129.6198876139893 133.2469625582755 129.10053785918203 133.31688529320226 128.65277613334484 133.12138369459728 C 128.20501440750766 132.92588209599234 127.90325713985254 132.49744784421577 127.87 132.01 C 127.21000000000001 120.91 129.61 109.69999999999999 133.08 99.69 L 133.08 99.69 C 144.75 64.78 158.13000000000002 56.69 158.17000000000002 56.69 L 158.17000000000002 56.69 C 161.49 54.099999999999994 165.27 54.449999999999996 167.17000000000002 57.519999999999996 L 167.17000000000002 57.519999999999996 C 167.17000000000002 57.519999999999996 179.06 69.93 154.4 105.72 Z" stroke-linecap="round" />
</g>
</svg>